<?xml version="1.0" encoding="utf-8"?>
<!-- Generator: Adobe Illustrator 25.0.0, SVG Export Plug-In . SVG Version: 6.00 Build 0)  -->
<svg version="1.1" id="svg" xmlns="http://www.w3.org/2000/svg" xmlns:xlink="http://www.w3.org/1999/xlink" x="0px" y="0px"
	 viewBox="0 0 100 100" style="enable-background:new 0 0 100 100;" xml:space="preserve">
<style type="text/css">
	.st0{fill-rule:evenodd;clip-rule:evenodd;fill:#04FCFC;}
</style>
<g id="svg">
	<clipPath id="clip">
		<path id="path0_7_" class="st0" d="M19.4,10.1C19,10.5,19,10.7,19,12.4c0,1.5,0.4,4.7,0.6,5.1c0,0.1,0.1,0.4,0.1,0.7
			c0.1,1.3,0.2,1.5,0.2,1.6c0,0.1,0.1,0.4,0.2,0.9c0.1,0.4,0.1,0.9,0.2,1c0,0.1,0.1,0.5,0.2,0.9c0.1,0.4,0.2,1,0.3,1.3
			c0.1,0.3,0.2,0.8,0.2,1.1c0.2,0.9,0.4,1.5,0.5,1.6c0.1,0.1,0.1,0.3,0.2,0.5c0,0.2,0.2,0.6,0.3,0.9c0.1,0.3,0.2,0.5,0.2,0.5
			c0,0.1-2.3,2.1-3.1,2.7c-0.3,0.2-0.6,0.5-0.8,0.7c-0.2,0.2-0.5,0.5-0.8,0.7L17,33l-0.2-0.4c-0.1-0.2-0.3-0.6-0.4-0.9
			c-0.1-0.3-0.2-0.6-0.3-0.7c-0.1-0.1-0.1-0.2-0.1-0.3c0-0.1-0.1-0.4-0.2-0.7c-0.4-0.9-0.4-0.9-0.6-1.4c-0.2-0.7-1.7-3.3-2.6-4.5
			c-0.7-1.1-1.4-0.5-0.9,0.8c0.1,0.3,0.2,0.7,0.3,1c0,0.2,0.1,0.5,0.1,0.5c0,0.1,0.1,0.4,0.1,0.7c0,0.3,0.1,0.7,0.2,0.9
			c0.1,0.2,0.2,0.5,0.2,0.7c0.1,0.5,0.6,1.8,1.1,2.8c0.1,0.1,0.1,0.3,0.1,0.4c0,0,0.1,0.3,0.2,0.6c0.1,0.3,0.2,0.5,0.2,0.6
			c0,0,0.1,0.2,0.2,0.5c0.1,0.2,0.3,0.6,0.3,0.8l0.2,0.4l-0.5,0.5c-0.3,0.3-0.9,0.9-1.4,1.5c-1.1,1.2-1.5,1.6-2,1.8
			c-0.2,0.1-0.4,0.2-0.4,0.2c0,0-0.1,0.1-0.2,0.1c-0.3,0-0.5,0.4-0.4,0.9c0.1,0.6,0.6,1.5,1.8,2.7c0.2,0.2,0.4,0.5,0.4,0.6
			c0,0.1,0.1,0.2,0.3,0.2c0.1,0,0.2,0.1,0.2,0.2c0,0.1,1.8,1.9,3.1,3.1c0.4,0.4,1.1,1,1.5,1.3c0.4,0.4,0.9,0.8,1,1
			c0.2,0.2,0.5,0.4,0.7,0.6c0.2,0.2,0.6,0.5,0.9,0.8c0.3,0.2,0.5,0.5,0.6,0.5c0.9,1,2.6,1.1,3.1,0.3c0.3-0.5,0.1-2.7-0.3-3.4
			c-0.1-0.1-0.2-0.3-0.2-0.5c-0.1-0.3-0.1-0.4-0.6-1.4c-0.1-0.3-0.3-0.6-0.3-0.8c0-0.1-0.1-0.3-0.1-0.3c0,0-0.1-0.3-0.2-0.5
			c-0.1-0.3-0.3-0.8-0.5-1.1c-0.2-0.3-0.4-0.8-0.5-1.1c-0.1-0.2-0.3-0.7-0.4-0.9c-0.1-0.3-0.2-0.5-0.2-0.5s-0.2-0.5-0.5-1.1
			c-0.7-1.6-0.9-1.9-1.1-2.3c-0.1-0.2-0.3-0.6-0.4-0.8c-0.5-1-0.7-0.7,2.1-3c1.6-1.3,1.7-1.4,2.1-1.8c0.3-0.3,0.4-0.2,0.5,0.3
			c0,0.2,0.1,0.4,0.1,0.4c0,0,0.1,0.2,0.2,0.5c0.1,0.3,0.2,0.6,0.2,0.8c0.1,0.2,0.2,0.4,0.2,0.6c0,0.2,0.1,0.4,0.2,0.5
			c0.1,0.1,0.2,0.4,0.2,0.7c0.1,0.3,0.2,0.5,0.2,0.6c0,0.1,0.1,0.3,0.2,0.6c0.2,0.8,0.5,1.6,0.7,1.9c0.1,0.2,0.1,0.4,0.1,0.4
			c0,0.1,0.1,0.2,0.1,0.3c0.1,0.1,0.1,0.2,0.1,0.3c0,0.2,0.8,2.2,1.2,3c0.6,1.1,2.1,2.7,2.7,2.8c0.2,0,0.4,0.1,0.6,0.2
			c0.1,0.1,0.3,0.1,0.3,0.1c0.1-0.1-0.2-0.8-0.3-0.8c0,0-0.1-0.1-0.1-0.2s-0.1-0.4-0.2-0.7c-0.1-0.3-0.3-0.7-0.3-0.8
			c-0.1-0.4-0.3-1.2-0.6-1.8c-0.1-0.2-0.2-0.4-0.2-0.5c0,0-0.1-0.2-0.1-0.4c-0.1-0.2-0.2-0.5-0.3-0.8s-0.3-0.8-0.4-1.1
			c-0.1-0.3-0.3-0.7-0.3-1c-0.1-0.2-0.2-0.5-0.2-0.6c-0.1-0.1-0.2-0.4-0.3-0.8c-0.1-0.3-0.2-0.6-0.2-0.7c0-0.1-0.1-0.3-0.2-0.6
			c-0.1-0.3-0.2-0.5-0.2-0.6c0-0.1-0.1-0.3-0.2-0.6c-0.1-0.3-0.2-0.6-0.2-0.6c-0.1-0.1-0.2-0.3-0.2-0.6c-0.2-0.7-0.5-1.7-0.6-1.8
			c0-0.1-0.1-0.4-0.2-0.6c-0.1-0.3-0.2-0.5-0.2-0.6c0,0,0-0.1,0.1-0.2c0.3-0.3,0.4-0.5,0.7-1c0.2-0.3,0.3-0.7,0.4-0.9
			c0-0.2,0.1-0.4,0.2-0.5c0.1-0.2,0.1-2.6,0-2.8c-0.1-0.1-0.1-0.3-0.2-0.6c-0.1-0.5-0.6-2.2-0.8-2.6c-0.1-0.1-0.1-0.3-0.1-0.4
			c0-0.1-0.1-0.2-0.1-0.4c-0.1-0.1-0.3-0.6-0.4-1.1c-0.2-0.4-0.5-1.2-0.7-1.6c-0.7-1.5-0.7-1.6-1-2.2c-0.1-0.3-0.3-0.8-0.4-0.9
			c-0.1-0.2-0.2-0.4-0.2-0.5c0-0.1-0.1-0.3-0.2-0.4c-0.1-0.1-0.2-0.4-0.3-0.7c-0.7-2.2-0.9-2.6-1.7-2.6C19.8,10,19.5,10,19.4,10.1
			 M43.7,18c0,0.4,0.1,0.8,0.1,0.8c0,0.1,0.1,0.7,0.2,1.3c0.1,0.6,0.2,1.2,0.2,1.3c0,0.1,0.1,0.6,0.2,1.2c0.1,0.6,0.2,1.3,0.2,1.6
			c0.1,0.3,0.2,0.8,0.2,1.1c0.1,0.3,0.1,0.6,0.2,0.6c0,0.1,0.1,0.4,0.2,0.7c0.3,1.2,0.5,1.8,0.6,2c0,0.1,0.1,0.3,0.2,0.5
			c0.1,0.4,0.6,2.1,0.7,2.3c0,0.1,0.1,0.3,0.2,0.6c0.3,1.2,1.9,1.7,2.8,0.9c0.2-0.2,0.2-0.3,0.3-1.5c0-1.2-0.1-1.6-0.2-1.1
			c-0.1,0.2-0.3,0.5-0.6,0.6c-0.2,0.1-0.5-0.7-1-2.6C48.1,28,48,27.7,48,27.6c0-0.1-0.1-0.4-0.2-0.7c-0.1-0.3-0.2-0.6-0.2-0.7
			c0-0.1-0.1-0.4-0.2-0.7c-0.1-0.6-0.3-1.2-0.6-2.1c-0.2-0.6-0.2-0.7-0.5-1.3c-0.1-0.2-0.2-0.4-0.2-0.4c0,0-0.1-0.2-0.1-0.4
			c-0.1-0.1-0.2-0.5-0.3-0.7s-0.2-0.6-0.3-0.7c-0.1-0.1-0.1-0.3-0.1-0.4c0-0.1-0.1-0.3-0.1-0.4c-0.1-0.1-0.2-0.4-0.3-0.6
			c-0.1-0.2-0.2-0.4-0.2-0.4c0,0-0.1-0.1-0.1-0.3c-0.1-0.4-0.2-0.5-0.6-0.5l-0.3,0L43.7,18 M61.5,18.2c-0.6,0.1-1.6,1.4-1.8,2.4
			c0,0.2-0.1,0.5-0.2,0.5c-0.1,0.1-0.1,0.4-0.1,0.7c-0.1,0.6-0.2,0.7-0.3,0.3c-0.4-1-0.8-1.4-1.6-1.4c-0.7,0-1.2,0.7-1.2,1.6
			c0,0.2,0,0.3-0.1,0.4c-0.1,0-0.1,0.3-0.1,0.5v0.4l-0.3-0.4c-0.2-0.2-0.4-0.5-0.4-0.5c-0.1,0-0.1-0.1-0.1-0.2
			c0-0.1-0.1-0.2-0.2-0.3c-0.1-0.1-0.2-0.3-0.2-0.3c0,0-0.2-0.1-0.4-0.1l-0.4,0l0,1.5c0,1.1,0,1.6,0.1,1.8c0.1,0.2,0.2,0.6,0.3,0.9
			c0.1,0.3,0.3,0.7,0.3,0.8c0.1,0.1,0.1,0.3,0.1,0.4c0,0.1,0.2,0.3,0.3,0.5c0.9,1,2.4,0.3,2.4-1.1l0-0.5l0.2,0.6
			c0.3,1,0.6,1.3,1.3,1.3c0.9,0,1.6-0.5,1.7-1.3c0-0.3,0.1-0.6,0.2-0.6c0-0.1,0.1-0.6,0.2-1.1c0.1-0.5,0.1-1.1,0.2-1.3
			c0-0.2,0.1-0.7,0.2-1.1c0.2-1.1,0.4-1.4,0.4-0.6c0,0.1,0.1,0.4,0.2,0.6c0.1,0.2,0.2,0.6,0.3,0.8c0.1,0.2,0.2,0.4,0.2,0.5
			c0.1,0.1,0.1,0.2,0.1,0.2c0,0.1,0.1,0.3,0.2,0.4c0.1,0.2,0.2,0.4,0.2,0.5c0,0.2,0.1,0.2,0.2,0.2c0.2,0,0.2-0.1,0.2-0.4
			c0-0.2,0.1-0.6,0.2-0.9c0.4-0.8,0.3-3.1-0.1-4.2C63.5,18.4,62.9,18,61.5,18.2 M22.9,21.7c0,0.2,0.1,0.4,0.2,0.6
			c0.1,0.1,0.2,0.5,0.3,0.8c0.1,0.3,0.2,0.6,0.2,0.7c0.1,0.1,0.3,1.6,0.3,2.1c0,0.2,0,0.1-0.1-0.1c0-0.2-0.1-0.5-0.2-0.6
			c0-0.1-0.1-0.4-0.2-0.7c-0.1-0.3-0.2-0.6-0.2-0.8c-0.1-0.1-0.2-0.6-0.3-1.1c-0.1-0.4-0.2-0.9-0.2-1c0-0.2,0-0.2,0-0.2
			C22.8,21.4,22.9,21.5,22.9,21.7 M50.4,21.8c-0.5,0.1-0.9,0.4-1,0.6c0,0.1-0.1,0.2-0.1,0.2c-0.1,0-0.6,1-0.7,1.3
			c0,0.1-0.1,0.3-0.2,0.4c-0.1,0.2-0.1,3.2,0,3.3c0.1,0,0.2,0.2,0.2,0.4c0.3,0.8,1.1,1.6,1.6,1.8c0.1,0,0.3,0.1,0.4,0.2
			c0.5,0.4,2.3,0,2.7-0.7c0.1-0.1,0.1-0.3,0.2-0.3c0.1-0.1,0.1-0.3,0.2-0.4c0-0.2,0.1-0.3,0.2-0.3c0.1,0,0.1,0,0-0.1
			c-0.1-0.1-0.2,0-0.5,0.1c-0.7,0.4-1.4,0.1-2.1-0.8c-0.5-0.6-0.5-0.6-0.1-0.9c0.5-0.3,0.8-0.9,0.8-1.6c0-0.3,0.1-0.5,0.1-0.5
			c0,0,0.1-0.5,0.1-1v-1l-0.4-0.4C51.4,21.7,51,21.6,50.4,21.8 M42.3,26.3c-1,0.6-1.4,1.5-1.5,3.3c0,0.6,0,0.9,0.1,1.1
			c0.1,0.1,0.2,0.4,0.2,0.5c0,0.2,0.2,0.5,0.4,0.7c0.2,0.2,0.5,0.6,0.6,0.7c0.2,0.2,0.5,0.5,0.8,0.7c0.3,0.2,0.5,0.4,0.5,0.4
			c0.1,0.2,0.9,0.2,0.9,0c0-0.1,0-0.2-0.1-0.2c0,0-0.1-0.2-0.1-0.4c0-0.2-0.1-0.5-0.3-0.7c-0.1-0.2-0.2-0.4-0.2-0.5
			c0-0.1-0.1-0.2-0.1-0.3c-0.1-0.1-0.3-0.6-0.4-1.1c-0.5-1.5-0.4-1.8,0.8-2.7c0.2-0.2,0.3-0.3,0.3-0.6c0-0.2,0-0.4,0.1-0.4
			c0.1-0.1,0-0.2-0.2-0.4C43.7,26,42.9,25.9,42.3,26.3 M37.7,30c-0.1,0.1-0.3,0.2-0.4,0.3c-0.1,0.1-0.3,0.2-0.6,0.2
			c-1.2,0.2-2.1,1.5-2.2,3.2c0,0.7-0.2,1.3-0.2,0.7c0-0.7-0.7-1.5-1.2-1.5c-0.2,0-0.5-0.1-0.6-0.1c-0.1-0.1-0.4-0.1-1-0.1
			s-0.9,0-1,0.1c-0.1,0.1-0.2,0.1-0.3,0.1c-0.4,0-1.6,1.1-1.6,1.5c0,0.1,0,0.2-0.1,0.2c-0.3,0.1-0.3,2.3,0,2.6
			c0.1,0.1,0.2,0.3,0.2,0.4c0.4,1.1,2.5,2.5,3.3,2.2c0.2-0.1,0.5-0.1,0.6-0.1c0.2,0,0.9-0.6,1-1c0.1-0.2,0.2-0.3,0.2-0.3
			c0.1,0,0.6,0.2,0.6,0.3c0,0.1,0.4,0.1,0.9,0.1c0.9,0,1.2-0.1,1.7-0.6c0.3-0.3,0.4-0.4,0.7-0.9c0.1-0.1,0.2-0.2,0.5-0.3
			c0.9-0.1,2.1-1.3,2.1-2c0-0.2,0.3-0.4,0.8-0.4c0.3,0,0.7-0.4,0.7-0.7c0-0.2-1.2-1.6-1.6-1.8c-0.2-0.1-0.4-0.3-0.4-0.5
			C39.3,30.3,38.4,29.6,37.7,30 M69.6,31.2c-0.5,0.4-1.1,1.3-1.3,2.3c0,0.2-0.1,0.4-0.1,0.5c-0.1,0.3-0.3,1.2-0.3,1.5
			c0,0.2-0.1,0.4-0.1,0.4c-0.2,0.2-0.2,5.9,0,6.2c0.1,0.1,0.2,0.7,0.2,1.3c0.1,0.6,0.1,1.1,0.2,1.1c0,0.1,0.1,0.4,0.2,0.8
			c0.1,0.4,0.2,0.9,0.3,1.1c0.2,0.6,0,1.3-1.1,3.6c-0.6,1.2-0.7,1.2-0.7-0.7c-0.1-1.8-0.2-2.1-1.2-2.1c-0.7,0-1.5,0.6-1.5,1.1
			c0,0.3-0.3,0.4-0.9,0.2c-0.7-0.3-2.2,0.6-2.5,1.5c-0.1,0.2-0.1,0.3-0.2,0.3c0,0-0.1,0.2-0.1,0.4c-0.1,0.9-0.2,0.9-0.4,0.2
			c-0.4-1.2-1.6-2.1-1.9-1.4c-0.1,0.2,0.3,3.1,0.4,3.3c0,0.1,0.1,0.4,0.2,0.8c0.1,0.4,0.1,0.8,0.2,0.9c0.2,0.3,0.3,2.3,0.2,3
			c0,0.4-0.1,0.7-0.1,0.7c0,0.3-1.5-0.9-2.5-2.1c-0.1-0.1-0.3-0.3-0.5-0.4c-0.2-0.1-0.4-0.3-0.5-0.5s-0.3-0.3-0.4-0.3
			c-0.2,0-0.2,0.3,0,0.5c0.1,0.1,0.2,0.4,0.2,0.7c0.4,3,4.1,5,5.1,2.8c0.2-0.5,0.4-2.1,0.3-3.4c0-0.9,0-1.1,0.1-1
			c0.1,0.1,0.1,0.2,0.1,0.2s0.2,0.3,0.4,0.4c1.3,1.1,3.5,0.6,4.3-1c0.1-0.2,0.3-0.4,0.3-0.4c0,0,0.1-0.1,0.1-0.2
			c0-0.1,0-0.1,0.2-0.1c0.7,0.3,2.5-0.2,2.5-0.8c0-0.1,0-0.1,0.1-0.1c0.1,0,1.1-2,1.1-2.2c0-0.3,0.3-0.4,0.5-0.2
			c0.2,0.3,0.5,0.6,0.8,0.8c0.1,0.1,0.4,0.3,0.6,0.4c0.7,0.6,2.6,0.2,2.6-0.5c0-0.1,0.1-0.3,0.2-0.5c0.2-0.2,0.3-0.4,0.2-0.4
			c0,0-0.2,0.1-0.3,0.2c-0.2,0.2-0.7,0.1-0.7-0.1c0,0-0.1-0.1-0.2-0.1c-0.2-0.1-0.7-0.6-0.7-0.7c0,0-0.1-0.1-0.1-0.2
			c-0.1-0.1-0.2-0.2-0.5-0.8c-0.7-1.4-0.9-2.2-0.5-3.3c0.1-0.3,0.2-0.8,0.3-1.3c0.1-0.4,0.2-1,0.2-1.3c0.3-1.3,0.2-9.5-0.1-10.1
			c-0.1-0.1-0.2-0.3-0.2-0.5C71.5,31.3,70.2,30.8,69.6,31.2 M37.7,33.1c0.2,0.2,0.4,0.5,0.4,0.6c0.6,0.7-0.4,1.5-1.1,0.9
			c-0.3-0.2-0.3-0.6-0.2-0.7c0,0,0.1-0.2,0.2-0.4c0.1-0.3,0.3-0.8,0.4-0.8C37.4,32.7,37.5,32.9,37.7,33.1 M31.8,35
			c0,0.1,0,0.3,0.1,0.3c0.1,0.1,0.1,1.2,0,1.6l-0.1,0.4l-0.4-0.4c-0.7-0.8-0.8-1.2-0.1-1.7C31.7,34.7,31.8,34.7,31.8,35 M16.3,37.6
			c0.2,0.4,0.4,0.8,0.4,0.8c0,0,0.2,0.4,0.4,0.9c0.2,0.5,0.5,1,0.5,1.2c0.1,0.2,0.2,0.4,0.2,0.4c0,0,0.1,0.1,0.1,0.1
			c0,0.1,0.1,0.4,0.3,0.8c1.6,3.3,2.5,5.3,2.5,5.4c0,0,0.2,0.4,0.3,0.8c0.2,0.4,0.3,0.8,0.3,0.8c0,0.1-1.6-0.9-1.7-1.1
			c0-0.1-0.1-0.1-0.2-0.1c-0.1,0-0.2-0.1-0.4-0.2c-0.1-0.1-0.4-0.3-0.6-0.5c-0.6-0.4-1.5-1.1-1.7-1.3c-0.1-0.1-0.4-0.4-0.7-0.6
			c-0.3-0.2-0.6-0.5-0.6-0.5c-0.2-0.2-1.7-1.6-1.8-1.6c-0.2,0-2.4-2.3-2.4-2.5c0,0-0.1-0.1-0.1-0.2c-0.3-0.2-0.3-0.5,0-0.5
			c0.6,0,1.8-0.6,3.2-1.4c0.2-0.1,0.6-0.5,0.9-0.7C16,36.8,15.9,36.8,16.3,37.6 M70.1,39.4c0,0.3,0,0.1,0-0.6c0-0.6,0-0.9,0-0.6
			C70.1,38.6,70.1,39,70.1,39.4 M89.4,45.7c-0.2,0.1-0.6,0.4-0.8,0.6c-0.2,0.2-0.5,0.4-0.5,0.4c-0.1,0-0.2,0.1-0.2,0.2
			S87.6,47,87.6,47c0,0-0.2,0.1-0.4,0.2c-0.2,0.1-0.4,0.2-0.4,0.2c-0.1,0-0.1,0.1-0.2,0.1c-0.1,0.1-0.2,0.2-0.7,0.5
			c-0.2,0.1-0.4,0.2-0.5,0.3c-0.1,0.1-0.2,0.2-0.2,0.2c-0.1,0-0.9,0.6-1.1,0.7c-0.1,0.1-0.2,0.1-0.2,0.1c-0.1,0-0.3,0.1-0.4,0.3
			c-0.2,0.2-0.4,0.3-0.5,0.3c-0.1,0-0.1,0-0.1,0.1c0,0.1-0.1,0.1-0.2,0.2c-0.1,0.1-0.2,0.1-0.2,0.2c0,0-0.1,0.1-0.3,0.2
			c-0.2,0.1-0.6,0.3-0.9,0.5c-0.3,0.2-0.6,0.4-0.7,0.4c-0.1,0-0.1,0-0.1,0.1c0,0-0.3,0.2-0.6,0.4c-0.3,0.2-0.6,0.4-0.6,0.4
			c0,0-0.1,0.1-0.3,0.1c-0.1,0-0.2,0.1-0.2,0.2c0,0-0.1,0.2-0.3,0.2c-0.2,0.1-0.3,0.2-0.4,0.2c-0.2,0.1-0.7,0.5-1.2,0.8
			c-0.2,0.1-0.5,0.3-0.6,0.4c-0.1,0.1-0.3,0.2-0.4,0.3c-0.5,0.3-1.5,0.9-1.6,1c0,0-0.2,0.2-0.4,0.3c-0.2,0.1-1,0.7-1.9,1.3
			c-0.8,0.6-1.7,1.2-1.8,1.3c-0.2,0.1-0.4,0.3-0.5,0.4c-0.1,0.1-0.2,0.2-0.3,0.2c0,0-0.1,0.1-0.2,0.2c-0.1,0.1-0.7,0.5-1.2,0.9
			c-0.6,0.4-1.1,0.8-1.1,0.8c-0.1,0-0.7,0.5-1.4,1c-0.7,0.5-1.3,1-1.4,1c-0.1,0-0.3,0.2-0.6,0.4c-0.3,0.2-0.5,0.4-0.6,0.5
			c-0.1,0.1-0.7,0.5-1.3,1c-1.6,1.2-2.1,1.6-3.1,2.3c-0.4,0.3-1,0.7-1.2,0.9c-0.2,0.2-0.4,0.3-0.4,0.4c0,0,0,0.1-0.1,0.1
			c-0.1,0-0.5,0.3-1.6,1.2c-0.2,0.2-0.6,0.4-0.8,0.6C53.7,71,53,71.6,52.6,72c-0.1,0.1-0.4,0.4-0.8,0.7c-0.4,0.3-0.7,0.6-0.8,0.7
			c-0.1,0.1-0.3,0.3-0.6,0.5c-0.3,0.2-0.6,0.5-0.8,0.7c-0.2,0.2-0.6,0.5-0.8,0.7c-0.2,0.2-0.5,0.5-0.7,0.6c-0.3,0.2-0.3,0.3-1.5,1.3
			c-0.5,0.4-1.1,1-1.4,1.3c-2.3,2.1-3.3,3.1-5.6,5.7c-0.3,0.4-0.7,0.8-0.9,1c-0.7,0.7-2.3,2.9-2.3,3.1c0,0.1,0,0.1-0.1,0.1
			c-0.1,0-0.1,0.2-0.2,0.4c-0.1,0.2-0.2,0.4-0.2,0.4c0,0-0.1,0.2-0.1,0.3c0,0.2,0,0.3,0.1,0.3s0.1,0.1,0.1,0.1c0,0.1,0,0.1,0.1,0.1
			c0.1,0,0.1-0.1,0.1-0.1c0-0.1,0-0.1,0.1-0.2c0,0,0.2-0.2,0.3-0.4c0.2-0.4,2.5-2.7,3.5-3.6c0.4-0.4,0.8-0.7,0.9-0.8
			c0.1-0.1,0.4-0.4,0.7-0.6c0.3-0.3,0.8-0.6,1-0.9c0.2-0.2,0.6-0.6,0.9-0.8c0.5-0.4,1.6-1.3,1.7-1.5c0.1-0.1,0.4-0.3,0.7-0.6
			c0.3-0.3,0.6-0.5,0.7-0.6c0,0,0.5-0.4,1-0.8c0.5-0.4,0.9-0.8,1-0.8c0,0,0.3-0.2,0.5-0.4c0.3-0.2,0.5-0.4,0.5-0.4s0.4-0.4,0.9-0.8
			c1.3-1,1.4-1.1,1.7-1.4c0.2-0.1,0.4-0.3,0.5-0.4c0.1-0.1,0.5-0.4,0.8-0.7c0.4-0.3,0.6-0.5,0.6-0.6c0,0,0.1-0.1,0.2-0.1
			c0.1,0,0.2-0.1,0.3-0.2c0.2-0.2,0.8-0.7,1.1-0.9c0.2-0.1,0.4-0.3,0.5-0.4c0.1-0.1,0.3-0.3,0.5-0.4c0.2-0.1,0.7-0.6,1.3-1
			c0.6-0.4,1.2-0.9,1.3-1c0.2-0.1,0.6-0.4,0.9-0.7c1.5-1.2,1.6-1.3,2.2-1.8c0.2-0.1,0.5-0.4,0.8-0.6c0.3-0.2,0.9-0.7,1.4-1.1
			s1.4-1.1,2-1.5c0.6-0.4,1.5-1.2,2.2-1.7c0.6-0.5,1.2-0.9,1.2-0.9c0.2-0.2,1.5-1.2,2.8-2.2c2.1-1.6,3-2.3,3.9-3.2
			c0.2-0.1,0.5-0.4,1.5-1.2c0.5-0.4,1-0.9,1.2-1c0.2-0.1,0.5-0.4,0.7-0.5c0.2-0.2,0.5-0.4,0.6-0.5c0.1-0.1,0.3-0.3,0.5-0.4
			c0.1-0.1,0.4-0.3,0.5-0.5c0.2-0.1,0.3-0.3,0.4-0.3c0.1,0,0.1-0.1,0.1-0.1s0-0.1,0.1-0.1c0.1,0,1.2-0.8,1.7-1.4
			c0.2-0.2,0.4-0.3,0.4-0.3c0.1,0,0.1-0.1,0.2-0.1c0-0.1,0.2-0.2,0.4-0.3c0.2-0.1,0.3-0.2,0.4-0.3c0-0.1,0.1-0.1,0.2-0.1
			c0.1,0,0.2-0.1,0.3-0.2c0.5-0.5,1-1,1.1-1c0,0,0.2-0.1,0.3-0.2c0.1-0.1,0.3-0.2,0.3-0.2c0.1,0,0.1,0,0.7-0.5
			c0.1-0.1,0.3-0.2,0.3-0.2c0,0,0.2-0.1,0.4-0.3c0.2-0.2,0.4-0.3,0.4-0.3c0.1,0,0.2-0.2,0.2-0.3C90,45.3,89.7,45.4,89.4,45.7
			 M41.6,47.6c-0.6,0.6-1.4,1.3-1.5,1.3c-0.1,0-0.1,0-0.1,0.1c0,0.1-0.1,0.1-0.1,0.1c-0.1,0-0.2,0.1-0.3,0.2
			c-0.1,0.1-0.4,0.3-0.5,0.3c-0.2,0.1-0.3,0.2-0.3,0.2c0,0-0.1,0.1-0.3,0.2c-0.1,0.1-0.4,0.2-0.6,0.3c-0.2,0.1-0.5,0.3-0.7,0.4
			c-0.5,0.3-0.7,0.4-1,0.6c-0.2,0.1-0.4,0.2-0.4,0.3c-0.1,0-0.4,0.3-0.8,0.5c-0.4,0.2-0.8,0.5-0.9,0.6c-0.3,0.2-1.8,1.3-2.1,1.5
			c-0.2,0.2-1.3,1.1-2.4,1.9c-0.4,0.4-1.1,0.9-1.5,1.2c-0.4,0.3-0.8,0.7-1.1,0.9c-1.6,1.4-2.4,2.1-3.2,3c-0.9,1-1.7,2-2,2.7
			c-0.1,0.3-0.3,0.6-0.4,0.7c-0.1,0.1-0.2,0.4-0.2,0.6c-0.1,0.2-0.1,0.4-0.2,0.4s-0.1,0.2-0.2,0.4c-0.1,0.2-0.2,0.6-0.3,0.7
			c-0.2,0.4-0.1,3.1,0.1,3.4c0.1,0.1,0.2,0.3,0.2,0.4s0.1,0.3,0.2,0.4c0.1,0.1,0.2,0.5,0.3,0.9c0.1,0.4,0.1,0.7,0.2,0.8
			c0,0,0.1,0.8,0.2,1.7c0.1,0.9,0.1,1.6,0.2,1.7c0,0,0.1,0.3,0.2,0.7c0.1,0.6,0.4,1.4,0.8,1.8c0.1,0.1,0.2,0.3,0.3,0.4
			c0.6,1,3.2,2.9,4,2.9c0.1,0,0.2,0,0.2,0.1c0,0,0.3,0.1,0.7,0.2c0.4,0.1,0.9,0.2,1.2,0.2c1,0.2,2.7-0.1,3.7-0.6
			c0.7-0.4,0.9-0.5,1.5-1.2c0.4-0.4,0.9-1.2,1-1.6c0-0.2,0.1-0.3,0.1-0.4c0.6-0.7,0.2-6.4-0.5-7.6c0-0.1-0.1-0.4-0.2-0.7
			s-0.1-0.6-0.2-0.6c0,0-0.1-0.3-0.2-0.6c-0.1-0.3-0.2-0.5-0.2-0.6c0-0.1-0.1-0.3-0.2-0.6c-0.2-0.6-0.3-0.5,0.8-1.2
			c0.7-0.5,2.2-1.8,2.6-2.3c0.1-0.2,0.3-0.3,0.4-0.4c0.5-0.5,1.6-1.9,1.6-2c0-0.1,0-0.1,0.1-0.1c0,0,0.1-0.2,0.2-0.5
			c0.1-0.3,0.2-0.5,0.2-0.5c0,0,0.1-0.1,0.1-0.2c0-0.1,0.1-0.3,0.2-0.4c0.2-0.2,0.5-0.6,0.5-0.7c0-0.2-0.2,0-0.6,0.4
			c-0.2,0.3-0.5,0.5-0.7,0.5c-0.1,0-0.2,0.1-0.2,0.2c0,0.1-0.1,0.1-0.1,0.1c-0.1,0-0.4,0.2-0.7,0.5c-0.3,0.3-0.7,0.6-0.8,0.6
			c-0.1,0.1-0.4,0.3-0.5,0.4c-0.2,0.1-0.4,0.3-0.4,0.3c-0.1,0-0.1,0-0.1,0.1c0,0-0.3,0.2-0.6,0.5c-0.3,0.2-0.5,0.4-0.6,0.4
			c-0.2,0.3-2.1,1.5-2.2,1.5c-0.1,0-0.2-0.1-0.2-0.3c-0.1-0.4-1.8-3.6-2.1-3.9c-0.1-0.1-0.1-0.2-0.2-0.4c0-0.1-0.1-0.2-0.1-0.2
			c0,0-0.1-0.1-0.2-0.3c-0.1-0.2-0.2-0.4-0.3-0.4c-0.2-0.1-0.2-0.3,0.1-0.5c0.1-0.1,0.4-0.3,0.5-0.4c0.4-0.3,1-0.9,2.2-1.8
			c0.5-0.4,0.9-0.7,0.9-0.7c0,0,0.3-0.3,0.6-0.5c0.5-0.4,4.9-4.7,4.9-4.9c0,0,0.2-0.3,0.4-0.5c0.2-0.2,0.9-0.9,1.4-1.5
			c0.5-0.6,1.1-1.1,1.2-1.2c0.2-0.2,0.3-0.4,0.1-0.4C42.1,47,41.9,47.3,41.6,47.6 M64.2,50.6c0.1,0.4,0,1-0.1,1.3
			c0,0.1-0.1,0.3-0.2,0.5c-0.4,1-0.9,1.2-1.2,0.6c-0.4-1.1,0-2.2,0.9-2.6C64.1,50.2,64.1,50.3,64.2,50.6 M47.4,52.3
			c0,0.2-0.1,0.8-0.1,1.3c0,0.5-0.1,1-0.1,1c-0.1,0-0.1,2.9,0,3c0.1,0,0.1,0.3,0.1,0.6c0,1,0.2,3.1,0.3,3.5c0.1,0.2,0.2,0.6,0.2,0.8
			c0,0.2,0.1,0.5,0.2,0.6c0.1,0.1,0.1,0.3,0.1,0.3c0,0.1,0.2,0.4,0.4,0.8c1.1,2.1,3.3,2.1,4.7-0.1l0.3-0.5l0-1.2
			c0-0.9-0.1-1.2-0.1-1.3c-0.1,0-0.1,0-0.1,0.1c0,0.1-0.1,0.2-0.2,0.3c-0.1,0.1-0.4,0.3-0.6,0.5c-1.6,1.6-1.9,1.6-2.2,0
			c0-0.2-0.1-0.4-0.2-0.5c-0.1-0.3-0.5-1.7-0.7-2.9c-0.1-0.6-0.2-1.2-0.2-1.3c0-0.2,0-0.3,0.2-0.3c0.4-0.1,1.4-1.2,1.4-1.5
			c0-0.1,0-0.1,0.1-0.1c0.1,0,0.4-0.5,0.4-0.5c0,0-1,0.3-1,0.4c0,0.1-1.1,0.3-1.3,0.3c-0.1,0-0.2-0.2-0.2-0.5
			c-0.1-0.3-0.2-0.6-0.3-0.7c-0.1-0.2-0.2-0.5-0.3-0.7C48.1,53.3,48,53.1,48,53c0-0.1-0.1-0.3-0.1-0.6
			C47.7,51.9,47.5,51.8,47.4,52.3 M51.8,53.4c0,0.5,0,0.5,0.4,0.7c0.2,0.1,0.5,0.3,0.6,0.5c0.1,0.2,0.3,0.3,0.3,0.3
			c0.1,0,0-0.9-0.1-1c0-0.1-0.1-0.3-0.1-0.6v-0.5h-0.5h-0.5V53.4 M53.1,57.6c0,0.3,0.1,0.9,0.1,1.2c0,0.3,0.1,0.9,0.2,1.2
			c0.1,0.8,0.2,1.1,0.3,1.1c0,0,0.1,0.1,0.1,0.2c0,0.5,0.4,0.9,0.9,0.9h0.5l0-0.5c0-0.3,0-0.6-0.1-0.7c-0.1-0.1-0.1-0.3-0.1-0.4
			c-0.1-0.6-0.3-1.1-0.4-1.3c-0.5-1.1-0.8-1.5-1.1-1.8c-0.2-0.2-0.3-0.4-0.3-0.4c0-0.1,0-0.1-0.1-0.1C53.1,57,53.1,57.2,53.1,57.6
			 M29,60c0.1,0.1,0.4,1,0.6,2.3c0.1,0.5,0.2,1,0.3,1.1c0.1,0.2,0.1,0.6,0.2,1c0.1,0.4,0.2,0.9,0.3,1.2c0.1,0.3,0.2,0.6,0.2,0.6
			s-0.3,0.2-0.6,0.3c-0.4,0.2-0.7,0.3-0.8,0.4C29,67,28.9,67,28.8,67c-0.7,0-1.1,1.3-0.5,1.6c0.4,0.2,1.3,0.3,1.4,0.1
			c0-0.1,0.2-0.1,0.3-0.1c0.2,0,0.5,0,0.7-0.1c0.5-0.1,0.6-0.1,0.9,0.7c0.1,0.3,0.2,0.6,0.2,0.7c0,0,0.1,0.2,0.1,0.5
			c0,0.2,0.1,0.5,0.2,0.6c0.1,0.1,0.2,0.5,0.3,0.9c0.1,0.3,0.2,0.9,0.3,1.1c0.1,0.3,0.2,1,0.2,1.5c0,0.5,0.1,1,0.1,1
			c0.1,0.1,0.1,0.8,0,1c0,0.1-0.1,0.4-0.2,0.7c-0.1,0.6-0.7,1.6-1.1,1.9c-0.1,0.1-0.2,0.2-0.3,0.3c-0.1,0.1-0.3,0.2-0.5,0.2
			s-0.4,0.2-0.5,0.2c-0.2,0.1-2.4,0.1-2.6,0c-0.1-0.1-0.4-0.2-0.7-0.2c-0.3-0.1-0.7-0.2-0.9-0.3c-0.1-0.1-0.3-0.2-0.3-0.2
			c-0.1,0-1.2-0.5-1.2-0.6c0-0.1-0.1-0.1-0.2-0.1c-0.1,0-0.2-0.1-0.4-0.2c-0.2-0.1-0.3-0.2-0.3-0.2c-0.3,0-1.7-2.2-1.7-2.6
			c0-0.1,0-0.2-0.1-0.2c-0.1,0-0.3-1.1-0.4-2.5c0-0.6-0.1-1.2-0.1-1.2c-0.1-0.1-0.1-1.1,0-1.1c0,0,0.1-0.3,0.1-0.6
			c0.1-0.7,0.2-1.2,0.4-1.5c0.1-0.1,0.1-0.3,0.1-0.3c0-0.2,0.9-2,1-2.1c0,0,0.1-0.2,0.2-0.3c0.1-0.1,0.2-0.3,0.2-0.3
			c0.4-0.5,0.7-0.9,0.8-1.1c0.3-0.5,2.3-2.5,3-3.1c0.2-0.1,0.5-0.4,0.8-0.7C28.9,59.8,28.8,59.8,29,60 M45,60.8
			c-0.3,0.1-0.7,0.8-1.1,1.4c-1.2,2.5-0.9,4,0.7,4.3c0.3,0.1,0.6,0.1,0.7,0.2c0,0,0.3,0.1,0.5,0.1c1.3,0.2,1.3,0.2,0.4,0.8
			c-1.2,0.7-1.6,1-1.7,1.1c-0.1,0-0.2,0.1-0.3,0.2c-0.3,0.1-0.3,0.4-0.2,0.7c0.2,0.5,2,0.3,3.1-0.4c2.1-1.4,2.1-2.9,0-3.5
			c-1.3-0.3-2.3-0.9-2.1-1.2c0.1-0.2,0.3-1.4,0.3-2c0-0.3,0-0.5,0.1-0.5c0,0,0.1-0.2,0.1-0.4c0-0.2,0.1-0.4,0.3-0.5
			C46.2,60.7,45.7,60.6,45,60.8 M39,66c-0.5,0.2-1.4,1.2-1.4,1.4c0,0.1-0.1,0.3-0.2,0.5c-0.6,1.4-0.5,4,0.2,5.1
			c0.1,0.1,0.1,0.2,0.2,0.4c0.2,0.5,1.4,1.5,1.8,1.5c0.1,0,0.2,0,0.3,0.1c0,0.1,0.4,0.1,0.8,0.1c0.4,0,0.7,0,0.8-0.1
			c0-0.1,0.1-0.1,0.2-0.1c0.5,0,1.6-0.8,2.2-1.7c0.6-0.9,0.7-1.1,0.8-1.6c0-0.3,0.2-0.6,0.3-0.7c0.2-0.2,0.3-0.6,0.2-0.6
			c-0.1,0-0.5,0.5-0.5,0.6c0,0-0.1,0.1-0.2,0.1c-0.2,0-1.3,0.5-1.4,0.7c-0.2,0.2-1.8,1-2.1,1c-0.5,0.1-1.1-0.6-1.3-1.4
			c0-0.2-0.1-0.4-0.2-0.4c-0.1,0-0.1-1.6,0-1.7c0,0,0.1-0.2,0.2-0.5c0.1-0.5,0.6-1.1,0.8-0.9c0.1,0.1,0.1,0.8,0.1,1.9l0,1.8l0.4,0
			c0.5,0,0.7-0.3,0.8-1.4c0.1-0.4,0.1-0.9,0.2-1.2c0.3-1.3-0.2-2.9-0.9-2.9c-0.1,0-0.2,0-0.2-0.1C40.6,65.7,39.4,65.8,39,66"/>
		<path id="path0_6_" class="st0" d="M19.4,10.1C19,10.5,19,10.7,19,12.4c0,1.5,0.4,4.7,0.6,5.1c0,0.1,0.1,0.4,0.1,0.7
			c0.1,1.3,0.2,1.5,0.2,1.6c0,0.1,0.1,0.4,0.2,0.9c0.1,0.4,0.1,0.9,0.2,1c0,0.1,0.1,0.5,0.2,0.9c0.1,0.4,0.2,1,0.3,1.3
			c0.1,0.3,0.2,0.8,0.2,1.1c0.2,0.9,0.4,1.5,0.5,1.6c0.1,0.1,0.1,0.3,0.2,0.5c0,0.2,0.2,0.6,0.3,0.9c0.1,0.3,0.2,0.5,0.2,0.5
			c0,0.1-2.3,2.1-3.1,2.7c-0.3,0.2-0.6,0.5-0.8,0.7c-0.2,0.2-0.5,0.5-0.8,0.7L17,33l-0.2-0.4c-0.1-0.2-0.3-0.6-0.4-0.9
			c-0.1-0.3-0.2-0.6-0.3-0.7c-0.1-0.1-0.1-0.2-0.1-0.3c0-0.1-0.1-0.4-0.2-0.7c-0.4-0.9-0.4-0.9-0.6-1.4c-0.2-0.7-1.7-3.3-2.6-4.5
			c-0.7-1.1-1.4-0.5-0.9,0.8c0.1,0.3,0.2,0.7,0.3,1c0,0.2,0.1,0.5,0.1,0.5c0,0.1,0.1,0.4,0.1,0.7c0,0.3,0.1,0.7,0.2,0.9
			c0.1,0.2,0.2,0.5,0.2,0.7c0.1,0.5,0.6,1.8,1.1,2.8c0.1,0.1,0.1,0.3,0.1,0.4c0,0,0.1,0.3,0.2,0.6c0.1,0.3,0.2,0.5,0.2,0.6
			c0,0,0.1,0.2,0.2,0.5c0.1,0.2,0.3,0.6,0.3,0.8l0.2,0.4l-0.5,0.5c-0.3,0.3-0.9,0.9-1.4,1.5c-1.1,1.2-1.5,1.6-2,1.8
			c-0.2,0.1-0.4,0.2-0.4,0.2c0,0-0.1,0.1-0.2,0.1c-0.3,0-0.5,0.4-0.4,0.9c0.1,0.6,0.6,1.5,1.8,2.7c0.2,0.2,0.4,0.5,0.4,0.6
			c0,0.1,0.1,0.2,0.3,0.2c0.1,0,0.2,0.1,0.2,0.2c0,0.1,1.8,1.9,3.1,3.1c0.4,0.4,1.1,1,1.5,1.3c0.4,0.4,0.9,0.8,1,1
			c0.2,0.2,0.5,0.4,0.7,0.6c0.2,0.2,0.6,0.5,0.9,0.8c0.3,0.2,0.5,0.5,0.6,0.5c0.9,1,2.6,1.1,3.1,0.3c0.3-0.5,0.1-2.7-0.3-3.4
			c-0.1-0.1-0.2-0.3-0.2-0.5c-0.1-0.3-0.1-0.4-0.6-1.4c-0.1-0.3-0.3-0.6-0.3-0.8c0-0.1-0.1-0.3-0.1-0.3c0,0-0.1-0.3-0.2-0.5
			c-0.1-0.3-0.3-0.8-0.5-1.1c-0.2-0.3-0.4-0.8-0.5-1.1c-0.1-0.2-0.3-0.7-0.4-0.9c-0.1-0.3-0.2-0.5-0.2-0.5s-0.2-0.5-0.5-1.1
			c-0.7-1.6-0.9-1.9-1.1-2.3c-0.1-0.2-0.3-0.6-0.4-0.8c-0.5-1-0.7-0.7,2.1-3c1.6-1.3,1.7-1.4,2.1-1.8c0.3-0.3,0.4-0.2,0.5,0.3
			c0,0.2,0.1,0.4,0.1,0.4c0,0,0.1,0.2,0.2,0.5c0.1,0.3,0.2,0.6,0.2,0.8c0.1,0.2,0.2,0.4,0.2,0.6c0,0.2,0.1,0.4,0.2,0.5
			c0.1,0.1,0.2,0.4,0.2,0.7c0.1,0.3,0.2,0.5,0.2,0.6c0,0.1,0.1,0.3,0.2,0.6c0.2,0.8,0.5,1.6,0.7,1.9c0.1,0.2,0.1,0.4,0.1,0.4
			c0,0.1,0.1,0.2,0.1,0.3c0.1,0.1,0.1,0.2,0.1,0.3c0,0.2,0.8,2.2,1.2,3c0.6,1.1,2.1,2.7,2.7,2.8c0.2,0,0.4,0.1,0.6,0.2
			c0.1,0.1,0.3,0.1,0.3,0.1c0.1-0.1-0.2-0.8-0.3-0.8c0,0-0.1-0.1-0.1-0.2s-0.1-0.4-0.2-0.7c-0.1-0.3-0.3-0.7-0.3-0.8
			c-0.1-0.4-0.3-1.2-0.6-1.8c-0.1-0.2-0.2-0.4-0.2-0.5c0,0-0.1-0.2-0.1-0.4c-0.1-0.2-0.2-0.5-0.3-0.8s-0.3-0.8-0.4-1.1
			c-0.1-0.3-0.3-0.7-0.3-1c-0.1-0.2-0.2-0.5-0.2-0.6c-0.1-0.1-0.2-0.4-0.3-0.8c-0.1-0.3-0.2-0.6-0.2-0.7c0-0.1-0.1-0.3-0.2-0.6
			c-0.1-0.3-0.2-0.5-0.2-0.6c0-0.1-0.1-0.3-0.2-0.6c-0.1-0.3-0.2-0.6-0.2-0.6c-0.1-0.1-0.2-0.3-0.2-0.6c-0.2-0.7-0.5-1.7-0.6-1.8
			c0-0.1-0.1-0.4-0.2-0.6c-0.1-0.3-0.2-0.5-0.2-0.6c0,0,0-0.1,0.1-0.2c0.3-0.3,0.4-0.5,0.7-1c0.2-0.3,0.3-0.7,0.4-0.9
			c0-0.2,0.1-0.4,0.2-0.5c0.1-0.2,0.1-2.6,0-2.8c-0.1-0.1-0.1-0.3-0.2-0.6c-0.1-0.5-0.6-2.2-0.8-2.6c-0.1-0.1-0.1-0.3-0.1-0.4
			c0-0.1-0.1-0.2-0.1-0.4c-0.1-0.1-0.3-0.6-0.4-1.1c-0.2-0.4-0.5-1.2-0.7-1.6c-0.7-1.5-0.7-1.6-1-2.2c-0.1-0.3-0.3-0.8-0.4-0.9
			c-0.1-0.2-0.2-0.4-0.2-0.5c0-0.1-0.1-0.3-0.2-0.4c-0.1-0.1-0.2-0.4-0.3-0.7c-0.7-2.2-0.9-2.6-1.7-2.6C19.8,10,19.5,10,19.4,10.1
			 M43.7,18c0,0.4,0.1,0.8,0.1,0.8c0,0.1,0.1,0.7,0.2,1.3c0.1,0.6,0.2,1.2,0.2,1.3c0,0.1,0.1,0.6,0.2,1.2c0.1,0.6,0.2,1.3,0.2,1.6
			c0.1,0.3,0.2,0.8,0.2,1.1c0.1,0.3,0.1,0.6,0.2,0.6c0,0.1,0.1,0.4,0.2,0.7c0.3,1.2,0.5,1.8,0.6,2c0,0.1,0.1,0.3,0.2,0.5
			c0.1,0.4,0.6,2.1,0.7,2.3c0,0.1,0.1,0.3,0.2,0.6c0.3,1.2,1.9,1.7,2.8,0.9c0.2-0.2,0.2-0.3,0.3-1.5c0-1.2-0.1-1.6-0.2-1.1
			c-0.1,0.2-0.3,0.5-0.6,0.6c-0.2,0.1-0.5-0.7-1-2.6C48.1,28,48,27.7,48,27.6c0-0.1-0.1-0.4-0.2-0.7c-0.1-0.3-0.2-0.6-0.2-0.7
			c0-0.1-0.1-0.4-0.2-0.7c-0.1-0.6-0.3-1.2-0.6-2.1c-0.2-0.6-0.2-0.7-0.5-1.3c-0.1-0.2-0.2-0.4-0.2-0.4c0,0-0.1-0.2-0.1-0.4
			c-0.1-0.1-0.2-0.5-0.3-0.7s-0.2-0.6-0.3-0.7c-0.1-0.1-0.1-0.3-0.1-0.4c0-0.1-0.1-0.3-0.1-0.4c-0.1-0.1-0.2-0.4-0.3-0.6
			c-0.1-0.2-0.2-0.4-0.2-0.4c0,0-0.1-0.1-0.1-0.3c-0.1-0.4-0.2-0.5-0.6-0.5l-0.3,0L43.7,18 M61.5,18.2c-0.6,0.1-1.6,1.4-1.8,2.4
			c0,0.2-0.1,0.5-0.2,0.5c-0.1,0.1-0.1,0.4-0.1,0.7c-0.1,0.6-0.2,0.7-0.3,0.3c-0.4-1-0.8-1.4-1.6-1.4c-0.7,0-1.2,0.7-1.2,1.6
			c0,0.2,0,0.3-0.1,0.4c-0.1,0-0.1,0.3-0.1,0.5v0.4l-0.3-0.4c-0.2-0.2-0.4-0.5-0.4-0.5c-0.1,0-0.1-0.1-0.1-0.2
			c0-0.1-0.1-0.2-0.2-0.3c-0.1-0.1-0.2-0.3-0.2-0.3c0,0-0.2-0.1-0.4-0.1l-0.4,0l0,1.5c0,1.1,0,1.6,0.1,1.8c0.1,0.2,0.2,0.6,0.3,0.9
			c0.1,0.3,0.3,0.7,0.3,0.8c0.1,0.1,0.1,0.3,0.1,0.4c0,0.1,0.2,0.3,0.3,0.5c0.9,1,2.4,0.3,2.4-1.1l0-0.5l0.2,0.6
			c0.3,1,0.6,1.3,1.3,1.3c0.9,0,1.6-0.5,1.7-1.3c0-0.3,0.1-0.6,0.2-0.6c0-0.1,0.1-0.6,0.2-1.1c0.1-0.5,0.1-1.1,0.2-1.3
			c0-0.2,0.1-0.7,0.2-1.1c0.2-1.1,0.4-1.4,0.4-0.6c0,0.1,0.1,0.4,0.2,0.6c0.1,0.2,0.2,0.6,0.3,0.8c0.1,0.2,0.2,0.4,0.2,0.5
			c0.1,0.1,0.1,0.2,0.1,0.2c0,0.1,0.1,0.3,0.2,0.4c0.1,0.2,0.2,0.4,0.2,0.5c0,0.2,0.1,0.2,0.2,0.2c0.2,0,0.2-0.1,0.2-0.4
			c0-0.2,0.1-0.6,0.2-0.9c0.4-0.8,0.3-3.1-0.1-4.2C63.5,18.4,62.9,18,61.5,18.2 M22.9,21.7c0,0.2,0.1,0.4,0.2,0.6
			c0.1,0.1,0.2,0.5,0.3,0.8c0.1,0.3,0.2,0.6,0.2,0.7c0.1,0.1,0.3,1.6,0.3,2.1c0,0.2,0,0.1-0.1-0.1c0-0.2-0.1-0.5-0.2-0.6
			c0-0.1-0.1-0.4-0.2-0.7c-0.1-0.3-0.2-0.6-0.2-0.8c-0.1-0.1-0.2-0.6-0.3-1.1c-0.1-0.4-0.2-0.9-0.2-1c0-0.2,0-0.2,0-0.2
			C22.8,21.4,22.9,21.5,22.9,21.7 M50.4,21.8c-0.5,0.1-0.9,0.4-1,0.6c0,0.1-0.1,0.2-0.1,0.2c-0.1,0-0.6,1-0.7,1.3
			c0,0.1-0.1,0.3-0.2,0.4c-0.1,0.2-0.1,3.2,0,3.3c0.1,0,0.2,0.2,0.2,0.4c0.3,0.8,1.1,1.6,1.6,1.8c0.1,0,0.3,0.1,0.4,0.2
			c0.5,0.4,2.3,0,2.7-0.7c0.1-0.1,0.1-0.3,0.2-0.3c0.1-0.1,0.1-0.3,0.2-0.4c0-0.2,0.1-0.3,0.2-0.3c0.1,0,0.1,0,0-0.1
			c-0.1-0.1-0.2,0-0.5,0.1c-0.7,0.4-1.4,0.1-2.1-0.8c-0.5-0.6-0.5-0.6-0.1-0.9c0.5-0.3,0.8-0.9,0.8-1.6c0-0.3,0.1-0.5,0.1-0.5
			c0,0,0.1-0.5,0.1-1v-1l-0.4-0.4C51.4,21.7,51,21.6,50.4,21.8 M42.3,26.3c-1,0.6-1.4,1.5-1.5,3.3c0,0.6,0,0.9,0.1,1.1
			c0.1,0.1,0.2,0.4,0.2,0.5c0,0.2,0.2,0.5,0.4,0.7c0.2,0.2,0.5,0.6,0.6,0.7c0.2,0.2,0.5,0.5,0.8,0.7c0.3,0.2,0.5,0.4,0.5,0.4
			c0.1,0.2,0.9,0.2,0.9,0c0-0.1,0-0.2-0.1-0.2c0,0-0.1-0.2-0.1-0.4c0-0.2-0.1-0.5-0.3-0.7c-0.1-0.2-0.2-0.4-0.2-0.5
			c0-0.1-0.1-0.2-0.1-0.3c-0.1-0.1-0.3-0.6-0.4-1.1c-0.5-1.5-0.4-1.8,0.8-2.7c0.2-0.2,0.3-0.3,0.3-0.6c0-0.2,0-0.4,0.1-0.4
			c0.1-0.1,0-0.2-0.2-0.4C43.7,26,42.9,25.9,42.3,26.3 M37.7,30c-0.1,0.1-0.3,0.2-0.4,0.3c-0.1,0.1-0.3,0.2-0.6,0.2
			c-1.2,0.2-2.1,1.5-2.2,3.2c0,0.7-0.2,1.3-0.2,0.7c0-0.7-0.7-1.5-1.2-1.5c-0.2,0-0.5-0.1-0.6-0.1c-0.1-0.1-0.4-0.1-1-0.1
			s-0.9,0-1,0.1c-0.1,0.1-0.2,0.1-0.3,0.1c-0.4,0-1.6,1.1-1.6,1.5c0,0.1,0,0.2-0.1,0.2c-0.3,0.1-0.3,2.3,0,2.6
			c0.1,0.1,0.2,0.3,0.2,0.4c0.4,1.1,2.5,2.5,3.3,2.2c0.2-0.1,0.5-0.1,0.6-0.1c0.2,0,0.9-0.6,1-1c0.1-0.2,0.2-0.3,0.2-0.3
			c0.1,0,0.6,0.2,0.6,0.3c0,0.1,0.4,0.1,0.9,0.1c0.9,0,1.2-0.1,1.7-0.6c0.3-0.3,0.4-0.4,0.7-0.9c0.1-0.1,0.2-0.2,0.5-0.3
			c0.9-0.1,2.1-1.3,2.1-2c0-0.2,0.3-0.4,0.8-0.4c0.3,0,0.7-0.4,0.7-0.7c0-0.2-1.2-1.6-1.6-1.8c-0.2-0.1-0.4-0.3-0.4-0.5
			C39.3,30.3,38.4,29.6,37.7,30 M69.6,31.2c-0.5,0.4-1.1,1.3-1.3,2.3c0,0.2-0.1,0.4-0.1,0.5c-0.1,0.3-0.3,1.2-0.3,1.5
			c0,0.2-0.1,0.4-0.1,0.4c-0.2,0.2-0.2,5.9,0,6.2c0.1,0.1,0.2,0.7,0.2,1.3c0.1,0.6,0.1,1.1,0.2,1.1c0,0.1,0.1,0.4,0.2,0.8
			c0.1,0.4,0.2,0.9,0.3,1.1c0.2,0.6,0,1.3-1.1,3.6c-0.6,1.2-0.7,1.2-0.7-0.7c-0.1-1.8-0.2-2.1-1.2-2.1c-0.7,0-1.5,0.6-1.5,1.1
			c0,0.3-0.3,0.4-0.9,0.2c-0.7-0.3-2.2,0.6-2.5,1.5c-0.1,0.2-0.1,0.3-0.2,0.3c0,0-0.1,0.2-0.1,0.4c-0.1,0.9-0.2,0.9-0.4,0.2
			c-0.4-1.2-1.6-2.1-1.9-1.4c-0.1,0.2,0.3,3.1,0.4,3.3c0,0.1,0.1,0.4,0.2,0.8c0.1,0.4,0.1,0.8,0.2,0.9c0.2,0.3,0.3,2.3,0.2,3
			c0,0.4-0.1,0.7-0.1,0.7c0,0.3-1.5-0.9-2.5-2.1c-0.1-0.1-0.3-0.3-0.5-0.4c-0.2-0.1-0.4-0.3-0.5-0.5s-0.3-0.3-0.4-0.3
			c-0.2,0-0.2,0.3,0,0.5c0.1,0.1,0.2,0.4,0.2,0.7c0.4,3,4.1,5,5.1,2.8c0.2-0.5,0.4-2.1,0.3-3.4c0-0.9,0-1.1,0.1-1
			c0.1,0.1,0.1,0.2,0.1,0.2s0.2,0.3,0.4,0.4c1.3,1.1,3.5,0.6,4.3-1c0.1-0.2,0.3-0.4,0.3-0.4c0,0,0.1-0.1,0.1-0.2
			c0-0.1,0-0.1,0.2-0.1c0.7,0.3,2.5-0.2,2.5-0.8c0-0.1,0-0.1,0.1-0.1c0.1,0,1.1-2,1.1-2.2c0-0.3,0.3-0.4,0.5-0.2
			c0.2,0.3,0.5,0.6,0.8,0.8c0.1,0.1,0.4,0.3,0.6,0.4c0.7,0.6,2.6,0.2,2.6-0.5c0-0.1,0.1-0.3,0.2-0.5c0.2-0.2,0.3-0.4,0.2-0.4
			c0,0-0.2,0.1-0.3,0.2c-0.2,0.2-0.7,0.1-0.7-0.1c0,0-0.1-0.1-0.2-0.1c-0.2-0.1-0.7-0.6-0.7-0.7c0,0-0.1-0.1-0.1-0.2
			c-0.1-0.1-0.2-0.2-0.5-0.8c-0.7-1.4-0.9-2.2-0.5-3.3c0.1-0.3,0.2-0.8,0.3-1.3c0.1-0.4,0.2-1,0.2-1.3c0.3-1.3,0.2-9.5-0.1-10.1
			c-0.1-0.1-0.2-0.3-0.2-0.5C71.5,31.3,70.2,30.8,69.6,31.2 M37.7,33.1c0.2,0.2,0.4,0.5,0.4,0.6c0.6,0.7-0.4,1.5-1.1,0.9
			c-0.3-0.2-0.3-0.6-0.2-0.7c0,0,0.1-0.2,0.2-0.4c0.1-0.3,0.3-0.8,0.4-0.8C37.4,32.7,37.5,32.9,37.7,33.1 M31.8,35
			c0,0.1,0,0.3,0.1,0.3c0.1,0.1,0.1,1.2,0,1.6l-0.1,0.4l-0.4-0.4c-0.7-0.8-0.8-1.2-0.1-1.7C31.7,34.7,31.8,34.7,31.8,35 M16.3,37.6
			c0.2,0.4,0.4,0.8,0.4,0.8c0,0,0.2,0.4,0.4,0.9c0.2,0.5,0.5,1,0.5,1.2c0.1,0.2,0.2,0.4,0.2,0.4c0,0,0.1,0.1,0.1,0.1
			c0,0.1,0.1,0.4,0.3,0.8c1.6,3.3,2.5,5.3,2.5,5.4c0,0,0.2,0.4,0.3,0.8c0.2,0.4,0.3,0.8,0.3,0.8c0,0.1-1.6-0.9-1.7-1.1
			c0-0.1-0.1-0.1-0.2-0.1c-0.1,0-0.2-0.1-0.4-0.2c-0.1-0.1-0.4-0.3-0.6-0.5c-0.6-0.4-1.5-1.1-1.7-1.3c-0.1-0.1-0.4-0.4-0.7-0.6
			c-0.3-0.2-0.6-0.5-0.6-0.5c-0.2-0.2-1.7-1.6-1.8-1.6c-0.2,0-2.4-2.3-2.4-2.5c0,0-0.1-0.1-0.1-0.2c-0.3-0.2-0.3-0.5,0-0.5
			c0.6,0,1.8-0.6,3.2-1.4c0.2-0.1,0.6-0.5,0.9-0.7C16,36.8,15.9,36.8,16.3,37.6 M70.1,39.4c0,0.3,0,0.1,0-0.6c0-0.6,0-0.9,0-0.6
			C70.1,38.6,70.1,39,70.1,39.4 M89.4,45.7c-0.2,0.1-0.6,0.4-0.8,0.6c-0.2,0.2-0.5,0.4-0.5,0.4c-0.1,0-0.2,0.1-0.2,0.2
			S87.6,47,87.6,47c0,0-0.2,0.1-0.4,0.2c-0.2,0.1-0.4,0.2-0.4,0.2c-0.1,0-0.1,0.1-0.2,0.1c-0.1,0.1-0.2,0.2-0.7,0.5
			c-0.2,0.1-0.4,0.2-0.5,0.3c-0.1,0.1-0.2,0.2-0.2,0.2c-0.1,0-0.9,0.6-1.1,0.7c-0.1,0.1-0.2,0.1-0.2,0.1c-0.1,0-0.3,0.1-0.4,0.3
			c-0.2,0.2-0.4,0.3-0.5,0.3c-0.1,0-0.1,0-0.1,0.1c0,0.1-0.1,0.1-0.2,0.2c-0.1,0.1-0.2,0.1-0.2,0.2c0,0-0.1,0.1-0.3,0.2
			c-0.2,0.1-0.6,0.3-0.9,0.5c-0.3,0.2-0.6,0.4-0.7,0.4c-0.1,0-0.1,0-0.1,0.1c0,0-0.3,0.2-0.6,0.4c-0.3,0.2-0.6,0.4-0.6,0.4
			c0,0-0.1,0.1-0.3,0.1c-0.1,0-0.2,0.1-0.2,0.2c0,0-0.1,0.2-0.3,0.2c-0.2,0.1-0.3,0.2-0.4,0.2c-0.2,0.1-0.7,0.5-1.2,0.8
			c-0.2,0.1-0.5,0.3-0.6,0.4c-0.1,0.1-0.3,0.2-0.4,0.3c-0.5,0.3-1.5,0.9-1.6,1c0,0-0.2,0.2-0.4,0.3c-0.2,0.1-1,0.7-1.9,1.3
			c-0.8,0.6-1.7,1.2-1.8,1.3c-0.2,0.1-0.4,0.3-0.5,0.4c-0.1,0.1-0.2,0.2-0.3,0.2c0,0-0.1,0.1-0.2,0.2c-0.1,0.1-0.7,0.5-1.2,0.9
			c-0.6,0.4-1.1,0.8-1.1,0.8c-0.1,0-0.7,0.5-1.4,1c-0.7,0.5-1.3,1-1.4,1c-0.1,0-0.3,0.2-0.6,0.4c-0.3,0.2-0.5,0.4-0.6,0.5
			c-0.1,0.1-0.7,0.5-1.3,1c-1.6,1.2-2.1,1.6-3.1,2.3c-0.4,0.3-1,0.7-1.2,0.9c-0.2,0.2-0.4,0.3-0.4,0.4c0,0,0,0.1-0.1,0.1
			c-0.1,0-0.5,0.3-1.6,1.2c-0.2,0.2-0.6,0.4-0.8,0.6C53.7,71,53,71.6,52.6,72c-0.1,0.1-0.4,0.4-0.8,0.7c-0.4,0.3-0.7,0.6-0.8,0.7
			c-0.1,0.1-0.3,0.3-0.6,0.5c-0.3,0.2-0.6,0.5-0.8,0.7c-0.2,0.2-0.6,0.5-0.8,0.7c-0.2,0.2-0.5,0.5-0.7,0.6c-0.3,0.2-0.3,0.3-1.5,1.3
			c-0.5,0.4-1.1,1-1.4,1.3c-2.3,2.1-3.3,3.1-5.6,5.7c-0.3,0.4-0.7,0.8-0.9,1c-0.7,0.7-2.3,2.9-2.3,3.1c0,0.1,0,0.1-0.1,0.1
			c-0.1,0-0.1,0.2-0.2,0.4c-0.1,0.2-0.2,0.4-0.2,0.4c0,0-0.1,0.2-0.1,0.3c0,0.2,0,0.3,0.1,0.3s0.1,0.1,0.1,0.1c0,0.1,0,0.1,0.1,0.1
			c0.1,0,0.1-0.1,0.1-0.1c0-0.1,0-0.1,0.1-0.2c0,0,0.2-0.2,0.3-0.4c0.2-0.4,2.5-2.7,3.5-3.6c0.4-0.4,0.8-0.7,0.9-0.8
			c0.1-0.1,0.4-0.4,0.7-0.6c0.3-0.3,0.8-0.6,1-0.9c0.2-0.2,0.6-0.6,0.9-0.8c0.5-0.4,1.6-1.3,1.7-1.5c0.1-0.1,0.4-0.3,0.7-0.6
			c0.3-0.3,0.6-0.5,0.7-0.6c0,0,0.5-0.4,1-0.8c0.5-0.4,0.9-0.8,1-0.8c0,0,0.3-0.2,0.5-0.4c0.3-0.2,0.5-0.4,0.5-0.4s0.4-0.4,0.9-0.8
			c1.3-1,1.4-1.1,1.7-1.4c0.2-0.1,0.4-0.3,0.5-0.4c0.1-0.1,0.5-0.4,0.8-0.7c0.4-0.3,0.6-0.5,0.6-0.6c0,0,0.1-0.1,0.2-0.1
			c0.1,0,0.2-0.1,0.3-0.2c0.2-0.2,0.8-0.7,1.1-0.9c0.2-0.1,0.4-0.3,0.5-0.4c0.1-0.1,0.3-0.3,0.5-0.4c0.2-0.1,0.7-0.6,1.3-1
			c0.6-0.4,1.2-0.9,1.3-1c0.2-0.1,0.6-0.4,0.9-0.7c1.5-1.2,1.6-1.3,2.2-1.8c0.2-0.1,0.5-0.4,0.8-0.6c0.3-0.2,0.9-0.7,1.4-1.1
			s1.4-1.1,2-1.5c0.6-0.4,1.5-1.2,2.2-1.7c0.6-0.5,1.2-0.9,1.2-0.9c0.2-0.2,1.5-1.2,2.8-2.2c2.1-1.6,3-2.3,3.9-3.2
			c0.2-0.1,0.5-0.4,1.5-1.2c0.5-0.4,1-0.9,1.2-1c0.2-0.1,0.5-0.4,0.7-0.5c0.2-0.2,0.5-0.4,0.6-0.5c0.1-0.1,0.3-0.3,0.5-0.4
			c0.1-0.1,0.4-0.3,0.5-0.5c0.2-0.1,0.3-0.3,0.4-0.3c0.1,0,0.1-0.1,0.1-0.1s0-0.1,0.1-0.1c0.1,0,1.2-0.8,1.7-1.4
			c0.2-0.2,0.4-0.3,0.4-0.3c0.1,0,0.1-0.1,0.2-0.1c0-0.1,0.2-0.2,0.4-0.3c0.2-0.1,0.3-0.2,0.4-0.3c0-0.1,0.1-0.1,0.2-0.1
			c0.1,0,0.2-0.1,0.3-0.2c0.5-0.5,1-1,1.1-1c0,0,0.2-0.1,0.3-0.2c0.1-0.1,0.3-0.2,0.3-0.2c0.1,0,0.1,0,0.7-0.5
			c0.1-0.1,0.3-0.2,0.3-0.2c0,0,0.2-0.1,0.4-0.3c0.2-0.2,0.4-0.3,0.4-0.3c0.1,0,0.2-0.2,0.2-0.3C90,45.3,89.7,45.4,89.4,45.7
			 M41.6,47.6c-0.6,0.6-1.4,1.3-1.5,1.3c-0.1,0-0.1,0-0.1,0.1c0,0.1-0.1,0.1-0.1,0.1c-0.1,0-0.2,0.1-0.3,0.2
			c-0.1,0.1-0.4,0.3-0.5,0.3c-0.2,0.1-0.3,0.2-0.3,0.2c0,0-0.1,0.1-0.3,0.2c-0.1,0.1-0.4,0.2-0.6,0.3c-0.2,0.1-0.5,0.3-0.7,0.4
			c-0.5,0.3-0.7,0.4-1,0.6c-0.2,0.1-0.4,0.2-0.4,0.3c-0.1,0-0.4,0.3-0.8,0.5c-0.4,0.2-0.8,0.5-0.9,0.6c-0.3,0.2-1.8,1.3-2.1,1.5
			c-0.2,0.2-1.3,1.1-2.4,1.9c-0.4,0.4-1.1,0.9-1.5,1.2c-0.4,0.3-0.8,0.7-1.1,0.9c-1.6,1.4-2.4,2.1-3.2,3c-0.9,1-1.7,2-2,2.7
			c-0.1,0.3-0.3,0.6-0.4,0.7c-0.1,0.1-0.2,0.4-0.2,0.6c-0.1,0.2-0.1,0.4-0.2,0.4s-0.1,0.2-0.2,0.4c-0.1,0.2-0.2,0.6-0.3,0.7
			c-0.2,0.4-0.1,3.1,0.1,3.4c0.1,0.1,0.2,0.3,0.2,0.4s0.1,0.3,0.2,0.4c0.1,0.1,0.2,0.5,0.3,0.9c0.1,0.4,0.1,0.7,0.2,0.8
			c0,0,0.1,0.8,0.2,1.7c0.1,0.9,0.1,1.6,0.2,1.7c0,0,0.1,0.3,0.2,0.7c0.1,0.6,0.4,1.4,0.8,1.8c0.1,0.1,0.2,0.3,0.3,0.4
			c0.6,1,3.2,2.9,4,2.9c0.1,0,0.2,0,0.2,0.1c0,0,0.3,0.1,0.7,0.2c0.4,0.1,0.9,0.2,1.2,0.2c1,0.2,2.7-0.1,3.7-0.6
			c0.7-0.4,0.9-0.5,1.5-1.2c0.4-0.4,0.9-1.2,1-1.6c0-0.2,0.1-0.3,0.1-0.4c0.6-0.7,0.2-6.4-0.5-7.6c0-0.1-0.1-0.4-0.2-0.7
			s-0.1-0.6-0.2-0.6c0,0-0.1-0.3-0.2-0.6c-0.1-0.3-0.2-0.5-0.2-0.6c0-0.1-0.1-0.3-0.2-0.6c-0.2-0.6-0.3-0.5,0.8-1.2
			c0.7-0.5,2.2-1.8,2.6-2.3c0.1-0.2,0.3-0.3,0.4-0.4c0.5-0.5,1.6-1.9,1.6-2c0-0.1,0-0.1,0.1-0.1c0,0,0.1-0.2,0.2-0.5
			c0.1-0.3,0.2-0.5,0.2-0.5c0,0,0.1-0.1,0.1-0.2c0-0.1,0.1-0.3,0.2-0.4c0.2-0.2,0.5-0.6,0.5-0.7c0-0.2-0.2,0-0.6,0.4
			c-0.2,0.3-0.5,0.5-0.7,0.5c-0.1,0-0.2,0.1-0.2,0.2c0,0.1-0.1,0.1-0.1,0.1c-0.1,0-0.4,0.2-0.7,0.5c-0.3,0.3-0.7,0.6-0.8,0.6
			c-0.1,0.1-0.4,0.3-0.5,0.4c-0.2,0.1-0.4,0.3-0.4,0.3c-0.1,0-0.1,0-0.1,0.1c0,0-0.3,0.2-0.6,0.5c-0.3,0.2-0.5,0.4-0.6,0.4
			c-0.2,0.3-2.1,1.5-2.2,1.5c-0.1,0-0.2-0.1-0.2-0.3c-0.1-0.4-1.8-3.6-2.1-3.9c-0.1-0.1-0.1-0.2-0.2-0.4c0-0.1-0.1-0.2-0.1-0.2
			c0,0-0.1-0.1-0.2-0.3c-0.1-0.2-0.2-0.4-0.3-0.4c-0.2-0.1-0.2-0.3,0.1-0.5c0.1-0.1,0.4-0.3,0.5-0.4c0.4-0.3,1-0.9,2.2-1.8
			c0.5-0.4,0.9-0.7,0.9-0.7c0,0,0.3-0.3,0.6-0.5c0.5-0.4,4.9-4.7,4.9-4.9c0,0,0.2-0.3,0.4-0.5c0.2-0.2,0.9-0.9,1.4-1.5
			c0.5-0.6,1.1-1.1,1.2-1.2c0.2-0.2,0.3-0.4,0.1-0.4C42.1,47,41.9,47.3,41.6,47.6 M64.2,50.6c0.1,0.4,0,1-0.1,1.3
			c0,0.1-0.1,0.3-0.2,0.5c-0.4,1-0.9,1.2-1.2,0.6c-0.4-1.1,0-2.2,0.9-2.6C64.1,50.2,64.1,50.3,64.2,50.6 M47.4,52.3
			c0,0.2-0.1,0.8-0.1,1.3c0,0.5-0.1,1-0.1,1c-0.1,0-0.1,2.9,0,3c0.1,0,0.1,0.3,0.1,0.6c0,1,0.2,3.1,0.3,3.5c0.1,0.2,0.2,0.6,0.2,0.8
			c0,0.2,0.1,0.5,0.2,0.6c0.1,0.1,0.1,0.3,0.1,0.3c0,0.1,0.2,0.4,0.4,0.8c1.1,2.1,3.3,2.1,4.7-0.1l0.3-0.5l0-1.2
			c0-0.9-0.1-1.2-0.1-1.3c-0.1,0-0.1,0-0.1,0.1c0,0.1-0.1,0.2-0.2,0.3c-0.1,0.1-0.4,0.3-0.6,0.5c-1.6,1.6-1.9,1.6-2.2,0
			c0-0.2-0.1-0.4-0.2-0.5c-0.1-0.3-0.5-1.7-0.7-2.9c-0.1-0.6-0.2-1.2-0.2-1.3c0-0.2,0-0.3,0.2-0.3c0.4-0.1,1.4-1.2,1.4-1.5
			c0-0.1,0-0.1,0.1-0.1c0.1,0,0.4-0.5,0.4-0.5c0,0-1,0.3-1,0.4c0,0.1-1.1,0.3-1.3,0.3c-0.1,0-0.2-0.2-0.2-0.5
			c-0.1-0.3-0.2-0.6-0.3-0.7c-0.1-0.2-0.2-0.5-0.3-0.7C48.1,53.3,48,53.1,48,53c0-0.1-0.1-0.3-0.1-0.6
			C47.7,51.9,47.5,51.8,47.4,52.3 M51.8,53.4c0,0.5,0,0.5,0.4,0.7c0.2,0.1,0.5,0.3,0.6,0.5c0.1,0.2,0.3,0.3,0.3,0.3
			c0.1,0,0-0.9-0.1-1c0-0.1-0.1-0.3-0.1-0.6v-0.5h-0.5h-0.5V53.4 M53.1,57.6c0,0.3,0.1,0.9,0.1,1.2c0,0.3,0.1,0.9,0.2,1.2
			c0.1,0.8,0.2,1.1,0.3,1.1c0,0,0.1,0.1,0.1,0.2c0,0.5,0.4,0.9,0.9,0.9h0.5l0-0.5c0-0.3,0-0.6-0.1-0.7c-0.1-0.1-0.1-0.3-0.1-0.4
			c-0.1-0.6-0.3-1.1-0.4-1.3c-0.5-1.1-0.8-1.5-1.1-1.8c-0.2-0.2-0.3-0.4-0.3-0.4c0-0.1,0-0.1-0.1-0.1C53.1,57,53.1,57.2,53.1,57.6
			 M29,60c0.1,0.1,0.4,1,0.6,2.3c0.1,0.5,0.2,1,0.3,1.1c0.1,0.2,0.1,0.6,0.2,1c0.1,0.4,0.2,0.9,0.3,1.2c0.1,0.3,0.2,0.6,0.2,0.6
			s-0.3,0.2-0.6,0.3c-0.4,0.2-0.7,0.3-0.8,0.4C29,67,28.9,67,28.8,67c-0.7,0-1.1,1.3-0.5,1.6c0.4,0.2,1.3,0.3,1.4,0.1
			c0-0.1,0.2-0.1,0.3-0.1c0.2,0,0.5,0,0.7-0.1c0.5-0.1,0.6-0.1,0.9,0.7c0.1,0.3,0.2,0.6,0.2,0.7c0,0,0.1,0.2,0.1,0.5
			c0,0.2,0.1,0.5,0.2,0.6c0.1,0.1,0.2,0.5,0.3,0.9c0.1,0.3,0.2,0.9,0.3,1.1c0.1,0.3,0.2,1,0.2,1.5c0,0.5,0.1,1,0.1,1
			c0.1,0.1,0.1,0.8,0,1c0,0.1-0.1,0.4-0.2,0.7c-0.1,0.6-0.7,1.6-1.1,1.9c-0.1,0.1-0.2,0.2-0.3,0.3c-0.1,0.1-0.3,0.2-0.5,0.2
			s-0.4,0.2-0.5,0.2c-0.2,0.1-2.4,0.1-2.6,0c-0.1-0.1-0.4-0.2-0.7-0.2c-0.3-0.1-0.7-0.2-0.9-0.3c-0.1-0.1-0.3-0.2-0.3-0.2
			c-0.1,0-1.2-0.5-1.2-0.6c0-0.1-0.1-0.1-0.2-0.1c-0.1,0-0.2-0.1-0.4-0.2c-0.2-0.1-0.3-0.2-0.3-0.2c-0.3,0-1.7-2.2-1.7-2.6
			c0-0.1,0-0.2-0.1-0.2c-0.1,0-0.3-1.1-0.4-2.5c0-0.6-0.1-1.2-0.1-1.2c-0.1-0.1-0.1-1.1,0-1.1c0,0,0.1-0.3,0.1-0.6
			c0.1-0.7,0.2-1.2,0.4-1.5c0.1-0.1,0.1-0.3,0.1-0.3c0-0.2,0.9-2,1-2.1c0,0,0.1-0.2,0.2-0.3c0.1-0.1,0.2-0.3,0.2-0.3
			c0.4-0.5,0.7-0.9,0.8-1.1c0.3-0.5,2.3-2.5,3-3.1c0.2-0.1,0.5-0.4,0.8-0.7C28.9,59.8,28.8,59.8,29,60 M45,60.8
			c-0.3,0.1-0.7,0.8-1.1,1.4c-1.2,2.5-0.9,4,0.7,4.3c0.3,0.1,0.6,0.1,0.7,0.2c0,0,0.3,0.1,0.5,0.1c1.3,0.2,1.3,0.2,0.4,0.8
			c-1.2,0.7-1.6,1-1.7,1.1c-0.1,0-0.2,0.1-0.3,0.2c-0.3,0.1-0.3,0.4-0.2,0.7c0.2,0.5,2,0.3,3.1-0.4c2.1-1.4,2.1-2.9,0-3.5
			c-1.3-0.3-2.3-0.9-2.1-1.2c0.1-0.2,0.3-1.4,0.3-2c0-0.3,0-0.5,0.1-0.5c0,0,0.1-0.2,0.1-0.4c0-0.2,0.1-0.4,0.3-0.5
			C46.2,60.7,45.7,60.6,45,60.8 M39,66c-0.5,0.2-1.4,1.2-1.4,1.4c0,0.1-0.1,0.3-0.2,0.5c-0.6,1.4-0.5,4,0.2,5.1
			c0.1,0.1,0.1,0.2,0.2,0.4c0.2,0.5,1.4,1.5,1.8,1.5c0.1,0,0.2,0,0.3,0.1c0,0.1,0.4,0.1,0.8,0.1c0.4,0,0.7,0,0.8-0.1
			c0-0.1,0.1-0.1,0.2-0.1c0.5,0,1.6-0.8,2.2-1.7c0.6-0.9,0.7-1.1,0.8-1.6c0-0.3,0.2-0.6,0.3-0.7c0.2-0.2,0.3-0.6,0.2-0.6
			c-0.1,0-0.5,0.5-0.5,0.6c0,0-0.1,0.1-0.2,0.1c-0.2,0-1.3,0.5-1.4,0.7c-0.2,0.2-1.8,1-2.1,1c-0.5,0.1-1.1-0.6-1.3-1.4
			c0-0.2-0.1-0.4-0.2-0.4c-0.1,0-0.1-1.6,0-1.7c0,0,0.1-0.2,0.2-0.5c0.1-0.5,0.6-1.1,0.8-0.9c0.1,0.1,0.1,0.8,0.1,1.9l0,1.8l0.4,0
			c0.5,0,0.7-0.3,0.8-1.4c0.1-0.4,0.1-0.9,0.2-1.2c0.3-1.3-0.2-2.9-0.9-2.9c-0.1,0-0.2,0-0.2-0.1C40.6,65.7,39.4,65.8,39,66"/>
	</clipPath>
</g>
</svg>
